<svg width="106" height="100" viewBox="0 0 106 100" fill="none" xmlns="http://www.w3.org/2000/svg">
<path d="M101.64 91.6846H96.7419V36.4803C96.7419 33.4433 95.3704 30.6023 92.9702 28.7409L86.9453 24.0385L86.8473 12.0376C86.8473 9.34355 84.6431 7.18829 81.949 7.18829H65.2457L58.6819 2.09403C55.1551 -0.698011 50.1589 -0.698011 46.6321 2.09403L12.3438 28.7409C9.9436 30.6023 8.57207 33.4433 8.57207 36.4313L8.32715 91.6846H3.67374C1.66543 91.6846 0 93.3501 0 95.3584C0 97.3667 1.66543 99.0321 3.67374 99.0321H101.64C103.649 99.0321 105.314 97.3667 105.314 95.3584C105.314 93.3501 103.649 91.6846 101.64 91.6846ZM25.7162 50.0484V42.7009C25.7162 40.0068 27.9205 37.8026 30.6145 37.8026H40.4112C43.1053 37.8026 45.3095 40.0068 45.3095 42.7009V50.0484C45.3095 52.7425 43.1053 54.9467 40.4112 54.9467H30.6145C27.9205 54.9467 25.7162 52.7425 25.7162 50.0484ZM64.9028 91.6846H40.4112V78.2138C40.4112 74.1481 43.6931 70.8663 47.7587 70.8663H57.5553C61.6209 70.8663 64.9028 74.1481 64.9028 78.2138V91.6846ZM79.5978 50.0484C79.5978 52.7425 77.3935 54.9467 74.6995 54.9467H64.9028C62.2087 54.9467 60.0045 52.7425 60.0045 50.0484V42.7009C60.0045 40.0068 62.2087 37.8026 64.9028 37.8026H74.6995C77.3935 37.8026 79.5978 40.0068 79.5978 42.7009V50.0484Z" fill="#292D32"/>
</svg>
