<svg width="106" height="106" viewBox="0 0 106 106" fill="none" xmlns="http://www.w3.org/2000/svg">
<path d="M47.7271 68.2946L37.9707 78.051C35.914 80.1077 32.6443 80.1077 30.5348 78.1037C29.9547 77.5236 29.3746 76.9962 28.7945 76.4161C23.3626 70.9315 18.458 65.1831 14.0808 59.1711C9.75637 53.159 6.27572 47.147 3.74434 41.1877C1.26569 35.1757 0 29.4273 0 23.9427C0 20.3565 0.632845 16.9286 1.89854 13.7644C3.16423 10.5474 5.16824 7.59415 7.96331 4.95729C11.3385 1.63485 15.0301 0 18.9326 0C20.4093 0 21.8859 0.316423 23.2043 0.949269C24.5755 1.58211 25.7885 2.53138 26.7377 3.90255L38.9728 21.1476C39.922 22.466 40.6076 23.679 41.0822 24.8392C41.5569 25.9467 41.8206 27.0542 41.8206 28.0562C41.8206 29.3219 41.4514 30.5875 40.7131 31.8005C40.0275 33.0135 39.0255 34.2791 37.7598 35.5448L33.7518 39.7111C33.1717 40.2912 32.908 40.9768 32.908 41.8206C32.908 42.2425 32.9607 42.6116 33.0662 43.0335C33.2244 43.4554 33.3826 43.7718 33.4881 44.0883C34.4374 45.8286 36.0722 48.0963 38.3926 50.8386C40.7658 53.5809 43.2972 56.376 46.0395 59.1711C46.5669 59.6985 47.147 60.2258 47.6744 60.7532C49.7839 62.8099 49.8366 66.1851 47.7271 68.2946Z" fill="#292D32"/>
<path d="M105.314 86.115C105.314 87.5917 105.05 89.121 104.523 90.5977C104.365 91.0196 104.207 91.4415 103.996 91.8634C103.099 93.7619 101.939 95.555 100.409 97.2426C97.8253 100.09 94.9775 102.147 91.7605 103.466C91.7078 103.466 91.6551 103.518 91.6023 103.518C88.4908 104.784 85.1156 105.47 81.4768 105.47C76.0976 105.47 70.3492 104.204 64.2845 101.62C58.2197 99.0356 52.1549 95.555 46.1429 91.1778C44.0861 89.6484 42.0294 88.119 40.0782 86.4842L57.3232 69.2391C58.7998 70.3466 60.1182 71.1904 61.2257 71.7705C61.4894 71.876 61.8058 72.0342 62.175 72.1924C62.5969 72.3506 63.0188 72.4034 63.4934 72.4034C64.3899 72.4034 65.0755 72.0869 65.6556 71.5068L69.6637 67.5515C70.9821 66.2331 72.2478 65.2311 73.4607 64.5983C74.6737 63.8599 75.8866 63.4908 77.2051 63.4908C78.2071 63.4908 79.2618 63.7017 80.422 64.1764C81.5823 64.651 82.7952 65.3366 84.1136 66.2331L101.57 78.6263C102.941 79.5756 103.89 80.6831 104.47 82.0015C104.998 83.32 105.314 84.6384 105.314 86.115Z" fill="#292D32"/>
</svg>
