<svg width="83" height="84" viewBox="0 0 83 84" fill="none" xmlns="http://www.w3.org/2000/svg">
<path d="M81.1387 36.2749L75.4958 29.719C74.417 28.4742 73.5456 26.1506 73.5456 24.4909V17.4372C73.5456 13.039 69.9358 9.42917 65.5376 9.42917H58.4838C56.8656 9.42917 54.5006 8.55783 53.2558 7.47902L46.7 1.83604C43.837 -0.612014 39.1483 -0.612014 36.2439 1.83604L29.7294 7.52051C28.4846 8.55783 26.1195 9.42917 24.5013 9.42917H17.3231C12.9249 9.42917 9.31507 13.039 9.31507 17.4372V24.5324C9.31507 26.1506 8.44372 28.4742 7.40641 29.719L1.80492 36.3163C-0.601641 39.1793 -0.601641 43.8265 1.80492 46.6895L7.40641 53.2868C8.44372 54.5315 9.31507 56.8551 9.31507 58.4733V65.5685C9.31507 69.9668 12.9249 73.5766 17.3231 73.5766H24.5013C26.1195 73.5766 28.4846 74.4479 29.7294 75.5268L36.2854 81.1697C39.1483 83.6178 43.837 83.6178 46.7415 81.1697L53.2973 75.5268C54.542 74.4479 56.8656 73.5766 58.5253 73.5766H65.5791C69.9773 73.5766 73.5871 69.9668 73.5871 65.5685V58.5148C73.5871 56.8966 74.4584 54.5315 75.5373 53.2868L81.1802 46.731C83.5868 43.868 83.5868 39.1378 81.1387 36.2749ZM58.7328 33.6608L38.6919 53.7017C38.111 54.2826 37.3227 54.6145 36.4928 54.6145C35.663 54.6145 34.8746 54.2826 34.2937 53.7017L24.2524 43.6605C23.0491 42.4572 23.0491 40.4656 24.2524 39.2623C25.4556 38.059 27.4473 38.059 28.6506 39.2623L36.4928 47.1044L54.3346 29.2626C55.5379 28.0593 57.5295 28.0593 58.7328 29.2626C59.9361 30.4659 59.9361 32.4575 58.7328 33.6608Z" fill="#292D32"/>
</svg>
